<svg width="33" height="32" viewBox="0 0 33 32" fill="none" xmlns="http://www.w3.org/2000/svg">
<path d="M15.9849 22.9294C16.1425 22.8359 16.3386 22.8361 16.496 22.9299L22.1124 26.2765L22.1125 26.2766C22.7775 26.6732 23.5513 26.08 23.3863 25.3809L21.8976 19.0878C21.8545 18.9054 21.917 18.7142 22.0596 18.5925L27.0263 14.3525L27.0265 14.3523C27.5863 13.8748 27.2973 12.9572 26.5405 12.8979L26.5379 12.8977L20.0013 12.351C19.8172 12.3356 19.6566 12.22 19.5836 12.0503L17.0258 6.10363L17.0252 6.10205C16.7377 5.42741 15.7424 5.42741 15.455 6.10205L15.4542 6.10401L12.8964 12.0373C12.8233 12.2068 12.6628 12.3223 12.4789 12.3377L5.94229 12.8843L5.93968 12.8845L5.93968 12.8845C5.18288 12.9439 4.89383 13.8615 5.45368 14.339L5.45385 14.3391L10.4206 18.5791C10.5632 18.7008 10.6257 18.8921 10.5825 19.0745L9.09391 25.3676L15.9849 22.9294ZM15.9849 22.9294L10.3686 26.2628L10.3677 26.2633M15.9849 22.9294L10.3677 26.2633M10.3677 26.2633C9.70275 26.6598 8.92907 26.0668 9.09386 25.3678L10.3677 26.2633Z" fill="#FFBA79" stroke="#FFBA79" stroke-linejoin="round"/>
</svg>
